<svg width="1496" height="596" viewBox="0 0 1496 596" fill="none" xmlns="http://www.w3.org/2000/svg">
<g clip-path="url(#clip0_1308_4)">
<path d="M331.052 212.708C338.101 201.402 350.506 194.562 363.798 194.562C377.09 194.562 389.495 201.402 396.544 212.708L412.091 237.533L422.966 231.256C426.35 229.285 430.579 229.566 433.68 231.94C436.781 234.314 438.151 238.337 437.144 242.12L427.719 277.284C426.35 282.434 421.033 285.492 415.877 284.124L380.675 274.709C376.888 273.704 374.109 270.525 373.586 266.662C373.062 262.8 374.955 258.978 378.338 257.046L389.777 250.448L374.673 226.348C372.337 222.606 368.229 220.312 363.798 220.312C359.368 220.312 355.259 222.606 352.923 226.348L345.875 237.613C342.169 243.568 334.355 245.459 328.313 241.838C322.151 238.136 320.177 230.089 324.004 223.974L331.052 212.708V212.708ZM433.68 295.913C439.722 292.292 447.536 294.183 451.241 300.137L461.069 315.869C464.855 321.945 466.869 328.905 466.95 336.067C467.07 357.431 449.751 374.853 428.363 374.853L389.576 374.812V387.688C389.576 391.59 387.24 395.131 383.615 396.62C379.99 398.108 375.841 397.304 373.062 394.527L347.284 368.777C343.498 364.995 343.498 358.88 347.284 355.138L373.062 329.388C375.841 326.612 379.99 325.807 383.615 327.296C387.24 328.784 389.576 332.325 389.576 336.228V349.103H428.323C435.412 349.103 441.172 343.309 441.131 336.228C441.131 333.854 440.447 331.52 439.198 329.509L429.37 313.777C425.544 307.661 427.477 299.614 433.68 295.913ZM286.827 283.44L275.187 276.721C271.804 274.75 269.911 270.968 270.434 267.105C270.958 263.243 273.737 260.064 277.523 259.058L312.726 249.643C317.881 248.275 323.198 251.333 324.568 256.483L333.993 291.608C335 295.39 333.63 299.373 330.529 301.787C327.427 304.201 323.198 304.443 319.815 302.471L309.141 296.315L288.398 329.468C287.15 331.48 286.465 333.814 286.465 336.188C286.425 343.269 292.184 349.062 299.273 349.062H312.243C319.372 349.062 325.131 354.816 325.131 361.938C325.131 369.059 319.372 374.812 312.243 374.812H299.273C277.886 374.812 260.566 357.431 260.687 336.027C260.727 328.865 262.741 321.904 266.568 315.829L286.827 283.44V283.44Z" fill="#1DB3A4"/>
</g>
<path d="M600.253 240.658V279.943H656.88V307.077H600.253V348.839H668.559V376.562H561.558V213.052H668.441L664.548 240.658H600.253ZM764.025 351.198C769.137 351.198 773.934 350.215 778.417 348.249C782.979 346.204 787.501 343.609 791.984 340.463L808.618 364.057C803.113 368.776 796.388 372.709 788.445 375.855C780.58 379.001 771.771 380.574 762.019 380.574C748.57 380.574 737.009 377.821 727.335 372.315C717.661 366.731 710.229 359.024 705.038 349.193C699.847 339.283 697.252 327.8 697.252 314.745C697.252 301.689 699.887 290.088 705.156 279.943C710.504 269.719 718.055 261.696 727.807 255.876C737.638 250.056 749.278 247.146 762.727 247.146C772.243 247.146 780.698 248.483 788.091 251.157C795.563 253.753 802.405 257.646 808.618 262.837L792.456 285.252C788.209 282.263 783.726 279.943 779.007 278.291C774.288 276.64 769.373 275.814 764.261 275.814C755.845 275.814 749.042 278.802 743.851 284.78C738.739 290.678 736.183 300.667 736.183 314.745C736.183 323.947 737.402 331.222 739.84 336.57C742.278 341.839 745.582 345.614 749.75 347.895C753.997 350.097 758.755 351.198 764.025 351.198ZM893.349 247.146C906.247 247.146 917.218 249.899 926.263 255.405C935.307 260.91 942.229 268.657 947.026 278.645C951.824 288.555 954.222 300.195 954.222 313.565C954.222 327.486 951.784 339.48 946.908 349.547C942.111 359.535 935.19 367.203 926.145 372.551C917.1 377.9 906.168 380.574 893.349 380.574C880.607 380.574 869.675 377.939 860.552 372.669C851.508 367.4 844.547 359.771 839.671 349.783C834.873 339.794 832.475 327.8 832.475 313.801C832.475 300.509 834.873 288.869 839.671 278.881C844.547 268.893 851.508 261.107 860.552 255.522C869.675 249.938 880.607 247.146 893.349 247.146ZM893.349 274.634C885.72 274.634 880.057 277.78 876.36 284.072C872.743 290.285 870.934 300.195 870.934 313.801C870.934 327.643 872.743 337.671 876.36 343.884C880.057 350.097 885.72 353.204 893.349 353.204C900.977 353.204 906.601 350.097 910.219 343.884C913.915 337.671 915.763 327.564 915.763 313.565C915.763 300.038 913.915 290.167 910.219 283.954C906.601 277.741 900.977 274.634 893.349 274.634Z" fill="#1DB3A4"/>
<path d="M1096.52 262.719C1096.52 270.505 1095.07 277.308 1092.16 283.128C1089.25 288.948 1085.32 293.864 1080.36 297.875C1075.41 301.886 1069.86 305.11 1063.73 307.548L1106.55 376.562H1062.78L1027.39 314.037H1016.42V376.562H977.725V213.052H1029.16C1051.42 213.052 1068.21 217.103 1079.54 225.203C1090.86 233.304 1096.52 245.809 1096.52 262.719ZM1056.65 262.719C1056.65 254.854 1054.33 249.152 1049.69 245.613C1045.13 241.995 1038.32 240.186 1029.28 240.186H1016.42V287.493H1030.81C1039.23 287.493 1045.64 285.527 1050.04 281.594C1054.45 277.662 1056.65 271.37 1056.65 262.719ZM1189.98 208.923C1201.7 208.923 1211.65 210.496 1219.83 213.642C1228.09 216.709 1235.64 221.074 1242.48 226.737L1223.49 249.624C1219 245.927 1214.05 243.017 1208.62 240.894C1203.2 238.692 1197.3 237.591 1190.93 237.591C1184.08 237.591 1177.83 239.557 1172.17 243.489C1166.51 247.343 1161.98 253.478 1158.6 261.893C1155.22 270.23 1153.53 281.083 1153.53 294.453C1153.53 307.588 1155.14 318.323 1158.37 326.66C1161.67 334.918 1166.19 341.013 1171.93 344.946C1177.68 348.8 1184.24 350.726 1191.64 350.726C1199.81 350.726 1206.62 349.193 1212.04 346.126C1217.47 343.058 1222.47 339.716 1227.03 336.098L1244.6 358.513C1238.47 364.569 1230.92 369.759 1221.95 374.085C1212.99 378.411 1202.17 380.574 1189.51 380.574C1174.73 380.574 1161.59 377.31 1150.11 370.782C1138.7 364.175 1129.74 354.502 1123.21 341.761C1116.76 328.941 1113.54 313.172 1113.54 294.453C1113.54 276.207 1116.88 260.713 1123.56 247.972C1130.33 235.231 1139.49 225.557 1151.05 218.951C1162.61 212.266 1175.59 208.923 1189.98 208.923Z" fill="#FFDE59"/>
<defs>
<clipPath id="clip0_1308_4">
<rect width="232" height="206" fill="white" transform="translate(247.798 194.562)"/>
</clipPath>
</defs>
</svg>
